<svg 
 xmlns="http://www.w3.org/2000/svg"
 xmlns:xlink="http://www.w3.org/1999/xlink"
 width="61px" height="61px">
<path fill-rule="evenodd"  fill="rgb(255, 255, 255)"
 d="M30.668,60.996 C13.943,60.996 0.381,47.344 0.381,30.508 C0.381,13.672 13.943,0.028 30.668,0.028 C47.392,0.028 60.946,13.672 60.946,30.508 C60.946,47.344 47.392,60.996 30.668,60.996 ZM48.421,19.355 C48.421,15.661 45.418,12.638 41.748,12.638 L19.580,12.638 C15.909,12.638 12.907,15.661 12.907,19.355 L12.907,41.669 C12.907,45.363 15.909,48.386 19.580,48.386 L41.748,48.386 C45.418,48.386 48.421,45.363 48.421,41.669 L48.421,19.355 ZM41.748,44.804 L19.580,44.804 C17.862,44.804 16.465,43.397 16.465,41.669 L16.465,26.744 L21.504,26.744 C21.077,27.855 20.840,29.061 20.840,30.326 C20.840,35.807 25.255,40.252 30.701,40.252 C36.146,40.252 40.561,35.807 40.561,30.326 C40.561,29.061 40.325,27.855 39.898,26.744 L44.862,26.744 L44.862,41.669 C44.862,43.397 43.466,44.804 41.748,44.804 ZM38.263,16.368 L44.491,16.368 L44.491,22.638 L38.263,22.638 L38.263,16.368 ZM30.701,36.670 C27.226,36.670 24.399,33.823 24.399,30.326 C24.399,26.827 27.226,23.980 30.701,23.980 C34.175,23.980 37.002,26.827 37.002,30.326 C37.002,33.823 34.175,36.670 30.701,36.670 Z"/>
</svg>