<svg 
 xmlns="http://www.w3.org/2000/svg"
 xmlns:xlink="http://www.w3.org/1999/xlink"
 width="61px" height="62px">
<path fill-rule="evenodd"  fill="rgb(255, 255, 255)"
 d="M60.578,31.012 C60.578,45.183 51.112,57.110 38.246,60.650 L38.246,39.390 L46.479,39.390 L46.479,29.266 L38.116,29.266 C38.116,29.266 37.710,25.026 39.058,22.836 C41.853,18.302 48.371,20.375 48.371,20.375 L48.907,9.706 C48.907,9.706 37.710,6.834 30.557,12.579 C23.403,18.325 24.621,29.126 24.621,29.126 L19.222,29.126 L19.222,39.251 L24.621,39.251 C24.621,39.251 24.621,51.736 24.621,61.178 C10.606,58.491 0.014,46.006 0.014,31.012 C0.014,14.055 13.570,0.311 30.296,0.311 C47.023,0.311 60.578,14.055 60.578,31.012 Z"/>
</svg>