<svg 
 xmlns="http://www.w3.org/2000/svg"
 xmlns:xlink="http://www.w3.org/1999/xlink"
 width="62px" height="62px">
<path fill-rule="evenodd"  fill="rgb(255, 255, 255)"
 d="M30.940,0.050 C14.216,0.050 0.654,13.695 0.654,30.530 C0.654,47.366 14.216,61.018 30.940,61.018 C47.664,61.018 61.219,47.366 61.219,30.530 C61.219,13.695 47.664,0.050 30.940,0.050 ZM47.733,22.930 C47.733,22.930 49.166,34.416 39.869,42.471 C30.581,50.527 18.420,49.763 11.176,44.445 C16.689,44.899 22.203,42.317 22.953,40.944 C20.012,41.022 16.459,39.195 15.104,34.785 C16.007,35.318 16.911,35.163 18.879,34.785 C13.060,33.036 12.607,28.627 12.385,26.198 C12.684,26.499 13.971,27.108 15.862,27.262 C11.780,23.385 12.385,18.744 13.749,16.084 C20.771,24.448 29.454,24.826 31.116,24.903 C30.588,21.411 31.078,17.919 35.267,15.483 C39.578,12.970 44.035,15.252 45.544,17.233 C47.879,17.002 50.605,15.175 50.605,15.175 C50.375,17.248 49.579,17.996 47.657,19.661 C48.791,19.661 50.751,18.906 52.037,18.451 C50.222,21.566 47.733,22.930 47.733,22.930 Z"/>
</svg>