<svg xmlns="http://www.w3.org/2000/svg" xmlns:xlink="http://www.w3.org/1999/xlink" viewBox="0 0 1842.52 625.17"><defs><style>.cls-1{fill:none;}.cls-2{clip-path:url(#clip-path);}.cls-3{fill:#fff;}</style><clipPath id="clip-path" transform="translate(0 0)"><rect class="cls-1" width="1842.52" height="625.17"/></clipPath></defs><title>logo-main</title><g id="Layer_2" data-name="Layer 2"><g id="Layer_1-2" data-name="Layer 1"><g class="cls-2"><path class="cls-3" d="M276.73,92.13h0l-172,246.68,85.77.32,85.76-121.37,155,221,68.28,94.59,67.3,91.15c25-2.12,47.54-10.13,66-23L276.24,96.22ZM424.24,475.21a149.5,149.5,0,0,0-1.8,22.87c0,67.79,46.4,117.13,111.09,125.62l-56.36-75.14ZM314.3,483.7h-50V428.49h50c16.5,0,30.55,10.62,30.55,27.61S331,483.7,314.3,483.7m-113.21-1.79-142.44-.33V427.51l142.44,1Zm208.12-25c0-2.28-57.34-81.68-56-81.68H.65v2.13L0,376.87V615.54H.65v5.06H59.79v-85H201.26v85h63.22V537.45h32.34L338,620.6h72.37l-50-90.17c22.71-8,48.84-30.88,48.84-73.52m144.41-85.76a145.75,145.75,0,0,0-46.23,7.19L543,427.84a75.6,75.6,0,0,1,10.62-.82c40.51,0,66.49,30.87,66.49,71.06,0,9.48-2.29,19.28-6.05,28.75l40,55.54c19.11-21.72,30.38-50.8,30.38-84.29,0-74.65-55.87-126.93-130.85-126.93m569.14,4.08H867.27V516.54L768,375.23h-65V620.6h63.22V472.27L869.88,620.6H931V430.29h64.36V620.44h63.22V430.29h64.2V620.44H1186V375.23h-63.22Zm623.38,92c-27.28-5.23-42.31-9.64-42.31-22.38,0-10.62,8.17-19.12,29.08-19.12,21.72,0,67.46,1.31,95.89,1.47v-54.4c-4.09-1-52.6-1.14-91.81-1.14-62.89,0-97.85,35.61-97.85,76.94,0,58.16,56.68,68.45,97,76.45,26.14,5.56,42,11.11,42,25,0,11.76-13.24,20.91-35,20.91A110.56,110.56,0,0,1,1665,538.59l-33.49,47.54c24.67,23.52,59.14,39,108.8,39,65.83,0,102.26-32.67,102.26-82,0-55.71-55.87-67.63-96.38-76M1212.28,620.6h179.86V567.18H1275.5V523.07h114V469.33h-114V428.49h116.64V375.07H1212.28Zm316.43-136.9h-50V428.49h50c16.5,0,30.55,10.62,30.55,27.61-.17,17-14,27.6-30.55,27.6m94.75-26.79c0-45.57-30.88-81.68-85.28-81.68H1415.34V620.6h63.22V537.45h32.34l41.17,83.15h72.37l-50-90.17c23-8,49-30.88,49-73.52m-1382.34-147-19.44,29.24H330.8l-19.44-29.24ZM454.3,144.25h50.15c16.5,0,30.55,10.61,30.55,27.6s-14,27.61-30.55,27.61H454.3Zm0,109.12h32.34L528,336.68h72.54l-50.16-90.33c22.87-8.17,49-31,49-73.68,0-45.74-30.87-81.84-85.43-81.84h-123V215.31l63.38,87.88Zm265.13,33.49A110.39,110.39,0,0,1,641,254.35l-33.49,47.54c24.67,23.52,59.3,39,109,39,66,0,102.43-32.84,102.43-82.17V256a6.4,6.4,0,0,0-.17-1.79v-.82a36.16,36.16,0,0,0-.49-4.25,1.48,1.48,0,0,0-.16-.81c-.16-1.31-.49-2.78-.65-4.09a.59.59,0,0,0-.17-.49c-.32-1.31-.65-2.45-1-3.76,0-.16-.16-.32-.16-.49-.33-1.3-.82-2.45-1.14-3.59-.17-.16-.17-.49-.33-.65-.33-1-.82-1.8-1.14-2.78-.17-.16-.17-.49-.33-.65,0-.17-.16-.33-.33-.49-.49-1-.82-1.8-1.31-2.78-.16-.16-.16-.33-.32-.49v-.16a24.84,24.84,0,0,0-1.31-2.13,3.62,3.62,0,0,0-.65-1c-.82-1.14-1.47-2.29-2.29-3.43s-1.8-2.29-2.61-3.27l-.17-.16c-.81-1-1.79-2-2.61-2.94a25.62,25.62,0,0,0-3.1-2.78c-1-.81-2-1.79-3.11-2.61a2.89,2.89,0,0,1-.81-.65l-2-1.47a23.55,23.55,0,0,0-3.27-2.13c-.17-.16-.33-.16-.49-.32-1.15-.82-2.45-1.47-3.6-2.13s-2.28-1.31-3.26-1.8c-1.31-.65-2.45-1.3-3.76-2-.82-.32-1.8-.81-2.61-1.14a.56.56,0,0,1-.33-.16l-5.88-2.45a2.28,2.28,0,0,0-1-.33c-2.13-.82-4.09-1.47-6.21-2.29-2-.65-3.92-1.3-5.88-1.79a8.61,8.61,0,0,0-1.14-.33c-2.13-.65-4.25-1.14-6.37-1.8-.17,0-.49-.16-.66-.16-2.12-.49-4.08-1-6.21-1.47h-.16c-6.7-1.63-13.39-2.94-19.6-4.25-27.28-5.23-42.31-9.64-42.31-22.54,0-10.62,8.17-19.11,29.08-19.11,21.72,0,43.61,1.14,102.75,1.14l1.14-54.4c-44.27,0-60.44-.82-99.81-.82-63.06,0-98,35.78-98,77.11a31.42,31.42,0,0,0,.17,4.08c0,.82.16,1.64.16,2.45a82.08,82.08,0,0,0,1.31,9.48,31.41,31.41,0,0,0,1.14,4.25,3.67,3.67,0,0,1,.33,1.3,4,4,0,0,1,.33,1.31,30.43,30.43,0,0,0,1.63,4.08c.33.66.49,1.31.82,2,0,.17.16.17.16.33a8.76,8.76,0,0,0,1.14,2.12c0,.17.17.17.17.33.65,1.14,1.3,2.29,2,3.43a21,21,0,0,0,2.12,3.11v.16c.82,1,1.63,2.12,2.45,3.1.33.33.65.82,1,1.15a7.87,7.87,0,0,0,1.63,1.63l1.15,1.14a18.17,18.17,0,0,0,1.79,1.64l1,1,2.95,2.45c1,.81,2,1.47,3.1,2.28.16.17.33.17.49.33,1.31.82,2.61,1.8,3.92,2.61.65.49,1.47.82,2.12,1.31,1.64,1,3.27,1.8,4.9,2.61l1,.5a4.7,4.7,0,0,1,1.31.65,38.16,38.16,0,0,0,3.76,1.63,3.26,3.26,0,0,1,1.3.66,5.48,5.48,0,0,1,1.48.65c.32.16.81.33,1.14.49l1,.49c2.45,1,5.06,1.8,7.51,2.61a13.88,13.88,0,0,1,1.31.49l4.9,1.47c.16,0,.33.17.49.17,1.63.49,3.27,1,4.9,1.3,1.8.49,3.6,1,5.39,1.31,1,.16,2,.49,2.78.65.33,0,.65.17,1,.17,1.31.32,2.45.49,3.76.81h.16a35.08,35.08,0,0,0,4.08.82c2.62.49,5.4,1.14,8,1.63,1.31.33,2.61.49,3.92.82,26.14,5.56,42,11.11,42,25,.33,11.44-12.9,20.59-34.63,20.59M1169,337.5c59.14,0,90.18-33.16,105.53-63.87l-52.76-25c-7.84,18.95-28.1,34.63-52.77,34.63-37.08,0-64.52-29.89-64.52-68.93,0-38.88,27.44-68.94,64.52-68.94,24.67,0,44.93,15.68,52.77,34.63l52.76-25c-15.68-31.37-46.39-63.88-105.53-63.88-71.38,0-126.93,49.67-126.93,123.18,0,73.34,55.71,123.17,126.93,123.17m-149.8-54.24H902.39V239h109.94V185.25H902.39V144.41h116.8L1065.26,91H839V336.85H1065.1ZM276.24,48,301.4,83.15l33.48.65L276.24,0,217.59,83.8l33.49-.65ZM64.53,144.25h51.13c17,0,29.4,11.1,29.4,27.93,0,16.66-12.58,27.28-29.4,27.28H64.53Zm0,109.12h68.12a15.5,15.5,0,0,0,1.47-1.8l71.38-100.3C205,131.67,179,90.83,124.32,90.83H1.14V336.68H64.53Z" transform="translate(0 0)"/></g></g></g></svg>